name rise30.2954peak35.7071fall66.7804.mot
datacolumns 19
datarows 36
range 17.45826900000000 17.51660400000000
endheader
time	ground_force1_vx	ground_force1_vy	ground_force1_vz	ground_force1_px	ground_force1_py	ground_force1_pz	ground_force2_vx	ground_force2_vy	ground_force2_vz	ground_force2_px	ground_force2_py	ground_force2_pz	ground_torque1_x	ground_torque1_y	ground_torque1_z	ground_torque2_x	ground_torque2_y	ground_torque2_z	
17.45826900000000	59.01636400000000	768.58177000000001	59.20609300000000	0.25603200000000	0.00000000000000	0.12375600000000	0.00000000000000	0.00000000000000	0.00000000000000	0.00000000000000	0.00000000000000	0.00000000000000	0.00000000000000	14.48378600000000	0.00000000000000	0.00000000000000	0.00000000000000	0.00000000000000	
17.45994000000000	58.42536100000000	770.92590900000005	59.25203300000000	0.25528100000000	0.00000000000000	0.12372700000000	0.00000000000000	0.00000000000000	0.00000000000000	0.00000000000000	0.00000000000000	0.00000000000000	0.00000000000000	14.52038700000000	0.00000000000000	0.00000000000000	0.00000000000000	0.00000000000000	
17.46160100000000	57.83169500000000	773.12914599999999	59.29592200000000	0.25453700000000	0.00000000000000	0.12369800000000	0.00000000000000	0.00000000000000	0.00000000000000	0.00000000000000	0.00000000000000	0.00000000000000	0.00000000000000	14.55819200000000	0.00000000000000	0.00000000000000	0.00000000000000	0.00000000000000	
17.46326800000000	57.23556000000000	775.18986600000005	59.33767000000000	0.25379800000000	0.00000000000000	0.12367100000000	0.00000000000000	0.00000000000000	0.00000000000000	0.00000000000000	0.00000000000000	0.00000000000000	0.00000000000000	14.59709700000000	0.00000000000000	0.00000000000000	0.00000000000000	0.00000000000000	
17.46493800000000	56.63711200000000	777.10667400000000	59.37712600000000	0.25306300000000	0.00000000000000	0.12364600000000	0.00000000000000	0.00000000000000	0.00000000000000	0.00000000000000	0.00000000000000	0.00000000000000	0.00000000000000	14.63697200000000	0.00000000000000	0.00000000000000	0.00000000000000	0.00000000000000	
17.46660300000000	56.03647100000000	778.87840700000004	59.41407900000000	0.25232900000000	0.00000000000000	0.12362200000000	0.00000000000000	0.00000000000000	0.00000000000000	0.00000000000000	0.00000000000000	0.00000000000000	0.00000000000000	14.67765800000000	0.00000000000000	0.00000000000000	0.00000000000000	0.00000000000000	
17.46827100000000	55.43372500000000	780.50414499999999	59.44826600000000	0.25159500000000	0.00000000000000	0.12360000000000	0.00000000000000	0.00000000000000	0.00000000000000	0.00000000000000	0.00000000000000	0.00000000000000	0.00000000000000	14.71897800000000	0.00000000000000	0.00000000000000	0.00000000000000	0.00000000000000	
17.46993400000000	54.82893900000000	781.98322199999996	59.47937400000000	0.25085800000000	0.00000000000000	0.12357900000000	0.00000000000000	0.00000000000000	0.00000000000000	0.00000000000000	0.00000000000000	0.00000000000000	0.00000000000000	14.76072700000000	0.00000000000000	0.00000000000000	0.00000000000000	0.00000000000000	
17.47160700000000	54.22215500000000	783.31523600000003	59.50704700000000	0.25011700000000	0.00000000000000	0.12356000000000	0.00000000000000	0.00000000000000	0.00000000000000	0.00000000000000	0.00000000000000	0.00000000000000	0.00000000000000	14.80268700000000	0.00000000000000	0.00000000000000	0.00000000000000	0.00000000000000	
17.47327200000000	53.61339600000000	784.50005499999997	59.53089100000000	0.24937000000000	0.00000000000000	0.12354300000000	0.00000000000000	0.00000000000000	0.00000000000000	0.00000000000000	0.00000000000000	0.00000000000000	0.00000000000000	14.84462100000000	0.00000000000000	0.00000000000000	0.00000000000000	0.00000000000000	
17.47493700000000	53.00267400000000	785.53782699999999	59.55048100000000	0.24861500000000	0.00000000000000	0.12352800000000	0.00000000000000	0.00000000000000	0.00000000000000	0.00000000000000	0.00000000000000	0.00000000000000	0.00000000000000	14.88627800000000	0.00000000000000	0.00000000000000	0.00000000000000	0.00000000000000	
17.47660100000000	52.38999500000000	786.42898500000001	59.56536600000000	0.24785000000000	0.00000000000000	0.12351400000000	0.00000000000000	0.00000000000000	0.00000000000000	0.00000000000000	0.00000000000000	0.00000000000000	0.00000000000000	14.92739800000000	0.00000000000000	0.00000000000000	0.00000000000000	0.00000000000000	
17.47827300000000	51.77535600000000	787.17424800000003	59.57507200000000	0.24707400000000	0.00000000000000	0.12350300000000	0.00000000000000	0.00000000000000	0.00000000000000	0.00000000000000	0.00000000000000	0.00000000000000	0.00000000000000	14.96770900000000	0.00000000000000	0.00000000000000	0.00000000000000	0.00000000000000	
17.47993300000000	51.15875900000000	787.77462900000000	59.57911400000000	0.24628500000000	0.00000000000000	0.12349300000000	0.00000000000000	0.00000000000000	0.00000000000000	0.00000000000000	0.00000000000000	0.00000000000000	0.00000000000000	15.00693700000000	0.00000000000000	0.00000000000000	0.00000000000000	0.00000000000000	
17.48160600000000	50.54020700000000	788.23143300000004	59.57699500000000	0.24548100000000	0.00000000000000	0.12348500000000	0.00000000000000	0.00000000000000	0.00000000000000	0.00000000000000	0.00000000000000	0.00000000000000	0.00000000000000	15.04480200000000	0.00000000000000	0.00000000000000	0.00000000000000	0.00000000000000	
17.48327100000000	49.91971400000000	788.54625599999997	59.56821600000000	0.24466100000000	0.00000000000000	0.12347900000000	0.00000000000000	0.00000000000000	0.00000000000000	0.00000000000000	0.00000000000000	0.00000000000000	0.00000000000000	15.08102500000000	0.00000000000000	0.00000000000000	0.00000000000000	0.00000000000000	
17.48494200000000	49.29730400000000	788.72098800000003	59.55228200000000	0.24382500000000	0.00000000000000	0.12347500000000	0.00000000000000	0.00000000000000	0.00000000000000	0.00000000000000	0.00000000000000	0.00000000000000	0.00000000000000	15.11532700000000	0.00000000000000	0.00000000000000	0.00000000000000	0.00000000000000	
17.48660300000000	48.67301700000000	788.75780799999995	59.52870200000000	0.24297000000000	0.00000000000000	0.12347300000000	0.00000000000000	0.00000000000000	0.00000000000000	0.00000000000000	0.00000000000000	0.00000000000000	0.00000000000000	15.14743500000000	0.00000000000000	0.00000000000000	0.00000000000000	0.00000000000000	
17.48826800000000	48.04691000000000	788.65918099999999	59.49700100000000	0.24209500000000	0.00000000000000	0.12347200000000	0.00000000000000	0.00000000000000	0.00000000000000	0.00000000000000	0.00000000000000	0.00000000000000	0.00000000000000	15.17708100000000	0.00000000000000	0.00000000000000	0.00000000000000	0.00000000000000	
17.48993600000000	47.41906300000000	788.42785200000003	59.45672100000000	0.24120100000000	0.00000000000000	0.12347400000000	0.00000000000000	0.00000000000000	0.00000000000000	0.00000000000000	0.00000000000000	0.00000000000000	0.00000000000000	15.20400700000000	0.00000000000000	0.00000000000000	0.00000000000000	0.00000000000000	
17.49160500000000	46.78957900000000	788.06683899999996	59.40742500000000	0.24028500000000	0.00000000000000	0.12347700000000	0.00000000000000	0.00000000000000	0.00000000000000	0.00000000000000	0.00000000000000	0.00000000000000	0.00000000000000	15.22796400000000	0.00000000000000	0.00000000000000	0.00000000000000	0.00000000000000	
17.49326900000000	46.15858800000000	787.57942800000001	59.34870500000000	0.23934700000000	0.00000000000000	0.12348100000000	0.00000000000000	0.00000000000000	0.00000000000000	0.00000000000000	0.00000000000000	0.00000000000000	0.00000000000000	15.24871800000000	0.00000000000000	0.00000000000000	0.00000000000000	0.00000000000000	
17.49493500000000	45.52624600000000	786.96916399999998	59.28018300000000	0.23838700000000	0.00000000000000	0.12348700000000	0.00000000000000	0.00000000000000	0.00000000000000	0.00000000000000	0.00000000000000	0.00000000000000	0.00000000000000	15.26604800000000	0.00000000000000	0.00000000000000	0.00000000000000	0.00000000000000	
17.49660400000000	44.89274100000000	786.23983899999996	59.20151400000000	0.23740500000000	0.00000000000000	0.12349500000000	0.00000000000000	0.00000000000000	0.00000000000000	0.00000000000000	0.00000000000000	0.00000000000000	0.00000000000000	15.27974900000000	0.00000000000000	0.00000000000000	0.00000000000000	0.00000000000000	
17.49826700000000	44.25829000000000	785.39548100000002	59.11239300000000	0.23639900000000	0.00000000000000	0.12350300000000	0.00000000000000	0.00000000000000	0.00000000000000	0.00000000000000	0.00000000000000	0.00000000000000	0.00000000000000	15.28963500000000	0.00000000000000	0.00000000000000	0.00000000000000	0.00000000000000	
17.49993900000000	43.62314300000000	784.44034699999997	59.01255400000000	0.23537100000000	0.00000000000000	0.12351400000000	0.00000000000000	0.00000000000000	0.00000000000000	0.00000000000000	0.00000000000000	0.00000000000000	0.00000000000000	15.29553600000000	0.00000000000000	0.00000000000000	0.00000000000000	0.00000000000000	
17.50160200000000	42.98758000000000	783.37890400000003	58.90177700000000	0.23432000000000	0.00000000000000	0.12352500000000	0.00000000000000	0.00000000000000	0.00000000000000	0.00000000000000	0.00000000000000	0.00000000000000	0.00000000000000	15.29730500000000	0.00000000000000	0.00000000000000	0.00000000000000	0.00000000000000	
17.50327000000000	42.35191500000000	782.21582200000000	58.77988400000000	0.23324600000000	0.00000000000000	0.12353800000000	0.00000000000000	0.00000000000000	0.00000000000000	0.00000000000000	0.00000000000000	0.00000000000000	0.00000000000000	15.29481400000000	0.00000000000000	0.00000000000000	0.00000000000000	0.00000000000000	
17.50495100000000	41.71649500000000	780.95595300000002	58.64674800000000	0.23214900000000	0.00000000000000	0.12355100000000	0.00000000000000	0.00000000000000	0.00000000000000	0.00000000000000	0.00000000000000	0.00000000000000	0.00000000000000	15.28795600000000	0.00000000000000	0.00000000000000	0.00000000000000	0.00000000000000	
17.50660700000000	41.08169600000000	779.60432100000003	58.50228600000000	0.23103100000000	0.00000000000000	0.12356500000000	0.00000000000000	0.00000000000000	0.00000000000000	0.00000000000000	0.00000000000000	0.00000000000000	0.00000000000000	15.27664600000000	0.00000000000000	0.00000000000000	0.00000000000000	0.00000000000000	
17.50827100000000	40.44792600000000	778.16610600000001	58.34646900000000	0.22989200000000	0.00000000000000	0.12358100000000	0.00000000000000	0.00000000000000	0.00000000000000	0.00000000000000	0.00000000000000	0.00000000000000	0.00000000000000	15.26082100000000	0.00000000000000	0.00000000000000	0.00000000000000	0.00000000000000	
17.50994200000000	39.81562300000000	776.64662299999998	58.17931500000000	0.22873300000000	0.00000000000000	0.12359600000000	0.00000000000000	0.00000000000000	0.00000000000000	0.00000000000000	0.00000000000000	0.00000000000000	0.00000000000000	15.24044100000000	0.00000000000000	0.00000000000000	0.00000000000000	0.00000000000000	
17.51160800000000	39.18525100000000	775.05131400000005	58.00089300000000	0.22755400000000	0.00000000000000	0.12361200000000	0.00000000000000	0.00000000000000	0.00000000000000	0.00000000000000	0.00000000000000	0.00000000000000	0.00000000000000	15.21548700000000	0.00000000000000	0.00000000000000	0.00000000000000	0.00000000000000	
17.51327400000000	38.55730200000000	773.38572399999998	57.81132300000000	0.22635700000000	0.00000000000000	0.12362900000000	0.00000000000000	0.00000000000000	0.00000000000000	0.00000000000000	0.00000000000000	0.00000000000000	0.00000000000000	15.18596200000000	0.00000000000000	0.00000000000000	0.00000000000000	0.00000000000000	
17.51493700000000	37.93229000000000	771.65548500000000	57.61077300000000	0.22514300000000	0.00000000000000	0.12364600000000	0.00000000000000	0.00000000000000	0.00000000000000	0.00000000000000	0.00000000000000	0.00000000000000	0.00000000000000	15.15189000000000	0.00000000000000	0.00000000000000	0.00000000000000	0.00000000000000	
17.51660400000000	37.31075200000000	769.86630200000002	57.39945800000000	0.22391400000000	0.00000000000000	0.12366300000000	0.00000000000000	0.00000000000000	0.00000000000000	0.00000000000000	0.00000000000000	0.00000000000000	0.00000000000000	15.11331500000000	0.00000000000000	0.00000000000000	0.00000000000000	0.00000000000000	
